<svg width="93" height="94" viewBox="0 0 93 94" fill="none" xmlns="http://www.w3.org/2000/svg">
<path fill-rule="evenodd" clip-rule="evenodd" d="M63.4378 11.2099C63.5244 11.5358 64.2921 12.1529 64.5563 12.4203L65.6877 13.6178C66.2063 14.1364 67.7015 15.5006 68.0317 15.9933C67.7308 16.4426 67.3345 16.8962 66.9815 17.3347L64.723 19.9213C64.1957 20.6034 61.2832 23.4498 60.4171 24.1114C59.735 24.6322 59.1146 25.2504 58.4401 25.7842L55.6976 27.8868C53.805 29.2163 51.8323 30.5297 49.8423 31.7228C48.8386 32.3248 47.796 32.9462 46.7414 33.467C45.1293 34.2639 43.5583 35.1485 41.9158 35.8782C41.3539 36.1283 40.7649 36.3687 40.2171 36.6339C39.9475 36.7649 39.6779 36.8667 39.3812 36.9945C39.0802 37.1233 38.8561 37.2294 38.5454 37.3539C37.9282 37.5997 37.4139 37.8184 36.8011 38.0642C35.0623 38.7625 33.2878 39.3948 31.4937 39.9936C30.8582 40.2058 30.2475 40.3855 29.6369 40.5912L22.0309 42.6765C21.3109 42.8595 18.7146 43.495 17.9404 43.495V65.5844C18.8185 65.3797 24.2277 62.4651 25.7229 61.6617L27.2127 60.8226C30.8744 58.8218 34.4322 56.5817 37.9023 54.269L43.4912 50.4178C45.0232 49.3373 46.4957 48.1896 48.0039 47.0647C49.9322 45.6258 51.7435 44.0526 53.6134 42.5423L59.8671 36.9652L68.0144 28.688C68.8503 27.6886 69.7825 26.7499 70.5858 25.7224C70.9886 25.2071 73.9617 21.7652 74.0743 21.344C74.3493 21.4176 74.4998 21.6666 74.6676 21.8843L78.0489 25.677C78.2222 25.8935 78.377 26.175 78.6693 26.253C78.7906 25.7311 79.0558 25.1908 79.254 24.6982L80.4677 21.6331C80.6788 21.0787 80.8564 20.6262 81.0697 20.0956L86.4994 6.26841C86.8362 5.38276 88.1202 2.41182 88.2978 1.64743C87.5746 1.47853 88.2198 1.32587 86.7874 1.89862L66.595 9.9626C66.0136 10.1954 64.0171 11.0778 63.4389 11.212L63.4378 11.2099Z" fill="#25E7D3"/>
<path fill-rule="evenodd" clip-rule="evenodd" d="M0.00324811 46.0099C0.00324811 50.4511 0.228451 53.8346 1.29925 58.1178C2.03981 61.0757 2.99693 63.7727 4.22038 66.525C4.49539 67.1432 4.85701 67.8015 5.16342 68.4132C6.06964 70.2256 7.15126 72.076 8.36281 73.7087L11.7852 78.0265C11.9401 78.1824 12.0191 78.2496 12.1479 78.4185C12.7391 79.1926 15.5206 81.8052 16.4809 82.5815L19.6825 85.0446C22.766 87.3551 27.243 89.5703 30.8776 90.8414C35.3189 92.394 40.4303 93.4605 45.2505 93.4605C49.8087 93.4605 53.006 93.2526 57.4093 92.1515C62.6929 90.8295 67.6073 88.6674 72.1222 85.6563C73.2428 84.9093 74.3277 84.0799 75.3952 83.2657L76.9229 81.9622C77.0864 81.8247 77.1384 81.8073 77.2986 81.6449C77.4642 81.4771 77.5032 81.436 77.696 81.2876C78.4506 80.7051 81.061 77.9237 81.8221 76.9817L84.2853 73.7802C85.1016 72.691 85.7913 71.4957 86.4973 70.3285C88.7071 66.6776 90.3474 62.3392 91.3781 58.2185C91.7625 56.681 92.0342 55.1728 92.2865 53.4632C92.8138 49.8827 92.8841 45.5075 92.4294 41.875C91.9671 38.183 91.1236 34.3437 89.8406 30.996C89.2311 29.4044 88.5479 27.8269 87.7911 26.3122L87.0137 24.8235C86.0945 22.997 84.897 21.3448 83.7288 19.6764C83.6432 19.554 83.6043 19.4457 83.4484 19.3894L82.4014 21.7422C82.3732 21.9847 82.645 22.2434 82.7814 22.4481C84.2485 24.6481 84.9847 26.0892 86.0902 28.3272C86.3348 28.822 86.5785 29.3568 86.7928 29.8895C89.0503 35.4957 90.3073 40.9526 90.3073 47.2052C90.3073 50.6893 89.8634 54.207 89.1737 57.0221C88.8164 58.4826 88.4883 59.9129 87.9697 61.2933C86.4496 65.3416 85.0573 68.5031 82.4414 72.1897C81.6532 73.3005 80.3269 75.1476 79.4359 76.0441L78.4614 77.1463C77.2553 78.451 75.9452 79.6852 74.5658 80.8026C71.8277 83.02 70.3455 83.9944 67.2717 85.7798C66.975 85.9519 66.6664 86.0645 66.3568 86.2497C65.6065 86.699 64.4177 87.2003 63.5786 87.5619C62.5911 87.9874 61.5799 88.3241 60.5762 88.7139L58.5126 89.3559C51.2303 91.4023 43.738 91.5917 36.3366 89.9114C33.8746 89.3516 31.4385 88.5634 29.1193 87.563C25.4273 85.9703 22.0168 83.8785 18.852 81.4057C18.5727 81.188 18.3735 80.9921 18.0974 80.7755C17.8354 80.5698 17.6188 80.3922 17.385 80.166L14.2365 77.1463C11.6748 74.3767 9.5029 71.291 7.65689 67.9931L6.73442 66.1471C1.99867 56.5327 1.20505 45.2682 4.10453 34.9479C4.20198 34.6003 4.307 34.2582 4.43043 33.889L5.11686 31.8687C5.25978 31.5049 5.3583 31.232 5.50339 30.8704C6.06639 29.464 6.9174 27.5043 7.68179 26.1899C7.84528 25.9095 8.02609 25.5955 8.182 25.3064C9.27228 23.2915 10.6516 21.413 12.0559 19.6157L17.4175 14.0268C17.5788 13.8666 17.6275 13.8482 17.7921 13.7085C18.9105 12.7622 20.0852 11.8852 21.2621 11.0115C22.321 10.2254 23.4676 9.54873 24.6261 8.90128C26.3844 7.91818 28.2532 6.92534 30.1522 6.24649C31.5143 5.75927 32.8493 5.24282 34.2351 4.85521C41.1276 2.928 48.7748 2.57395 55.8708 4.23807C58.1964 4.78375 60.456 5.43662 62.6615 6.32011L65.7819 7.66916C66.3178 7.90411 66.1792 7.86838 66.6437 7.62369C67.1158 7.37466 68.3121 6.65034 68.7214 6.55397C68.3998 6.1144 64.9374 4.61377 64.2271 4.31494C62.6063 3.63392 60.9779 3.06334 59.1969 2.54797C55.4918 1.47501 51.4988 0.763672 47.4506 0.763672C42.8924 0.763672 39.6952 0.971551 35.2918 2.07266C33.7317 2.46243 32.3761 2.8717 30.922 3.36649C29.5145 3.84613 28.2207 4.38424 26.8922 5.00029C23.2727 6.6774 20.4371 8.56997 17.3049 10.9573C17.0353 11.163 16.8014 11.3893 16.5145 11.6145L15.4015 12.5781C15.2358 12.746 15.1968 12.7871 15.0041 12.9354C14.2495 13.5179 11.6391 16.2994 10.8779 17.2413L8.41478 20.4429C7.20215 22.0615 6.10862 23.9119 5.20239 25.7254C4.88949 26.3523 4.53112 26.9824 4.26152 27.6158C2.22929 32.3776 1.20288 35.4026 0.413593 40.7599C0.176481 42.3709 0 44.2234 0 46.0099H0.00324811Z" fill="#0081AF"/>
<path fill-rule="evenodd" clip-rule="evenodd" d="M62.3053 39.7802V75.5885H73.6953V27.8867L62.655 39.3764C62.5207 39.4782 62.3042 39.5897 62.3042 39.7802H62.3053Z" fill="url(#paint0_linear_2713_829)"/>
<path fill-rule="evenodd" clip-rule="evenodd" d="M47.5793 52.3665V75.3999C47.5793 75.545 47.6227 75.5883 47.7677 75.5883H58.9694V42.8008C58.7334 42.9589 58.571 43.1873 58.3035 43.3941L56.1912 45.2466C56.0591 45.3527 55.9995 45.4404 55.8674 45.5519C53.4628 47.5744 50.756 49.8665 48.2625 51.7288C48.1326 51.8262 48.0373 51.9009 47.9085 52.0038C47.7688 52.1153 47.5804 52.1835 47.5804 52.3676L47.5793 52.3665Z" fill="url(#paint1_linear_2713_829)"/>
<path fill-rule="evenodd" clip-rule="evenodd" d="M32.9164 62.373V75.5884H44.118C44.4179 75.5884 44.3064 75.0785 44.3064 74.5187V54.7583C43.9924 54.8308 42.0143 56.3152 41.5 56.6714C40.5364 57.3395 39.6042 57.9415 38.6514 58.6062C37.3143 59.5384 34.9973 60.9719 33.5811 61.8424C33.2542 62.0438 32.9153 62.151 32.9153 62.373H32.9164Z" fill="url(#paint2_linear_2713_829)"/>
<path fill-rule="evenodd" clip-rule="evenodd" d="M18.1904 70.3013V75.587H29.5816V64.2598C29.3585 64.3117 28.4328 64.8531 28.1849 65.0025L19.5969 69.5044C19.2558 69.6755 18.1915 70.0522 18.1915 70.3013H18.1904Z" fill="url(#paint3_linear_2713_829)"/>
<defs>
<linearGradient id="paint0_linear_2713_829" x1="67.9998" y1="27.8867" x2="68" y2="76" gradientUnits="userSpaceOnUse">
<stop stop-color="#25E7D3"/>
<stop offset="1" stop-color="#01A7CF"/>
</linearGradient>
<linearGradient id="paint1_linear_2713_829" x1="53.2744" y1="42.8008" x2="53.2744" y2="75.5883" gradientUnits="userSpaceOnUse">
<stop stop-color="#25E7D3"/>
<stop offset="1" stop-color="#01A7CF"/>
</linearGradient>
<linearGradient id="paint2_linear_2713_829" x1="38.621" y1="54.7583" x2="38.621" y2="75.5884" gradientUnits="userSpaceOnUse">
<stop stop-color="#25E7D3"/>
<stop offset="1" stop-color="#01A7CF"/>
</linearGradient>
<linearGradient id="paint3_linear_2713_829" x1="23.886" y1="64.2598" x2="23.886" y2="75.587" gradientUnits="userSpaceOnUse">
<stop stop-color="#25E7D3"/>
<stop offset="0.994792" stop-color="#01A7CF"/>
</linearGradient>
</defs>
</svg>
