<svg width="93" height="94" viewBox="0 0 93 94" fill="none" xmlns="http://www.w3.org/2000/svg">
<g clip-path="url(#clip0_2713_821)">
<path fill-rule="evenodd" clip-rule="evenodd" d="M67.7111 15.5396L74.3008 15.5586L74.3035 22.4744L81.1492 22.4839L81.2305 15.5572L88.0194 15.4936V8.63062L81.2305 8.62249V1.70941L74.2981 1.70264L74.3049 8.63197L67.6975 8.62384L67.7111 15.5396Z" fill="#25E7D3"/>
<path fill-rule="evenodd" clip-rule="evenodd" d="M-9.85772e-05 46.1593C-9.85772e-05 50.6159 0.224752 54.0101 1.30024 58.3067C2.04252 61.2741 3.00287 63.98 4.23007 66.7414C4.50503 67.362 4.8694 68.0218 5.17552 68.6357C6.08441 70.454 7.16938 72.3103 8.38438 73.9485L11.8167 78.2803C11.9725 78.4362 12.0511 78.5039 12.1811 78.6733C12.773 79.4497 15.5633 82.0716 16.5264 82.8493L19.7366 85.3208C22.829 87.6378 27.3192 89.8613 30.9642 91.1363C35.4179 92.6945 40.5447 93.7636 45.379 93.7636C49.9505 93.7636 53.1567 93.555 57.5724 92.4507C62.8713 91.1241 67.8004 88.9548 72.3286 85.9346C73.4528 85.1853 74.5405 84.3533 75.6119 83.5363L77.1439 82.2274C77.3078 82.0892 77.3606 82.0716 77.5204 81.909C77.6857 81.741 77.725 81.7003 77.9187 81.5499C78.6758 80.9645 81.2941 78.1747 82.0567 77.2289L84.5274 74.0176C85.3455 72.9241 86.0377 71.7263 86.7461 70.5543C88.9621 66.8918 90.6078 62.5396 91.6413 58.4042C92.0274 56.8609 92.2996 55.3488 92.5529 53.6334C93.0825 50.0413 93.153 45.6526 92.6965 42.0077C92.2332 38.3032 91.3867 34.4524 90.0999 31.0934C89.489 29.4972 88.8036 27.9146 88.0437 26.3944L87.2649 24.9012C86.3424 23.0692 85.1423 21.4108 83.9693 19.7374C83.884 19.6141 83.8447 19.507 83.6889 19.4501L82.6392 21.8105C82.6107 22.0544 82.8843 22.3132 83.0198 22.5178C84.4908 24.725 85.2304 26.1708 86.3384 28.416C86.5835 28.9119 86.8287 29.4498 87.0427 29.9837C89.3061 35.6082 90.5672 41.0823 90.5672 47.3558C90.5672 50.8503 90.1215 54.38 89.4307 57.2051C89.0718 58.6712 88.7426 60.1047 88.2225 61.4895C86.6973 65.5504 85.3022 68.7224 82.6771 72.4214C81.8874 73.5352 80.5559 75.3888 79.6633 76.2885L78.6867 77.3942C77.4771 78.7031 76.1632 79.9415 74.7803 81.0621C72.0333 83.287 70.5474 84.2639 67.4645 86.0565C67.1665 86.23 66.8577 86.3424 66.5475 86.5281C65.7944 86.9793 64.6024 87.482 63.7612 87.8451C62.7711 88.2719 61.7565 88.6107 60.7501 89.0009L58.6804 89.6459C51.3768 91.6986 43.862 91.8897 36.4392 90.2028C33.9699 89.6418 31.5264 88.8505 29.2006 87.8465C25.4987 86.2476 22.0772 84.1501 18.9036 81.6691C18.6232 81.451 18.4227 81.2545 18.1464 81.0377C17.8836 80.8304 17.6656 80.6543 17.4326 80.4266L14.2752 77.3969C11.7057 74.6179 9.5276 71.5231 7.67597 68.2142L6.75083 66.362C2.00188 56.7159 1.20542 45.4155 4.11222 35.0608C4.20975 34.7125 4.3154 34.3697 4.43866 33.9985L5.12676 31.9714C5.27034 31.6069 5.36922 31.3319 5.51415 30.9701C6.07899 29.5596 6.93233 27.5935 7.69899 26.2738C7.86289 25.9919 8.0444 25.6776 8.20152 25.3876C9.29462 23.366 10.6789 21.4812 12.0876 19.6777L17.4651 14.0709C17.6263 13.9096 17.675 13.892 17.8403 13.7511C18.9618 12.8013 20.1403 11.9219 21.3214 11.0452C22.3833 10.2566 23.5333 9.57777 24.6955 8.92739C26.4591 7.94097 28.3324 6.94506 30.2369 6.26351C31.6022 5.77572 32.9418 5.25676 34.3316 4.86789C41.245 2.93434 48.9143 2.57934 56.031 4.24866C58.3635 4.79607 60.6296 5.45188 62.8415 6.33803L65.9704 7.69165C66.5082 7.92742 66.3687 7.89219 66.8346 7.64558C67.3074 7.39627 68.5075 6.66865 68.9179 6.57244C68.5955 6.13208 65.1225 4.62535 64.41 4.3259C62.7846 3.64299 61.1511 3.07119 59.3658 2.55359C55.6504 1.47774 51.645 0.763672 47.5855 0.763672C43.014 0.763672 39.8079 0.972338 35.3922 2.07664C33.8277 2.46823 32.4677 2.87879 31.0103 3.37471C29.5989 3.85572 28.3012 4.39636 26.9684 5.01422C23.3383 6.6971 20.4938 8.59542 17.3527 10.991C17.0831 11.197 16.8474 11.4246 16.5603 11.6509L15.4441 12.617C15.2789 12.785 15.2396 12.8256 15.0459 12.976C14.2887 13.5614 11.6704 16.3513 10.9079 17.2971L8.43721 20.5083C7.22085 22.1316 6.12369 23.9893 5.2148 25.809C4.90056 26.4377 4.54161 27.0705 4.2707 27.706C2.23215 32.4836 1.20407 35.5187 0.411676 40.8926C0.17328 42.509 -0.00280762 44.3681 -0.00280762 46.1607L-9.85772e-05 46.1593Z" fill="#0081AF"/>
<path fill-rule="evenodd" clip-rule="evenodd" d="M14.8455 40.3857C14.8455 43.929 16.0456 47.7134 17.6696 50.4599L18.9077 52.4463C19.0824 52.6835 19.2192 52.8691 19.3872 53.113L20.8067 54.9178C22.2181 56.5384 22.9577 57.2809 24.4626 58.7863C25.5204 59.8445 27.8787 61.8607 29.0923 62.8268L32.6845 65.6831C32.885 65.8362 33.0678 65.9907 33.2791 66.1627C33.4972 66.3402 33.6692 66.454 33.8846 66.6315L38.7121 70.4743C39.7673 71.3265 42.5562 73.8725 43.1441 74.6422C43.3148 74.8644 43.4746 74.9931 43.6453 75.2153C44.2128 75.9524 44.4702 76.1882 45.0201 77.0648C45.1718 77.3074 45.2693 77.4862 45.4143 77.7464C45.566 78.016 45.7204 78.1935 45.7949 78.5133H45.9385C46.231 77.2573 49.1487 74.0649 50.2201 73.1205L61.6496 64.1276C67.9169 59.4502 75.0498 53.0195 77.0193 45.101C78.2072 40.322 77.4636 34.9563 74.5771 31.0879C73.7603 29.9931 73.6262 29.9267 72.7173 29.0067C72.5169 28.8034 72.4153 28.7533 72.2162 28.5758L70.542 27.3116C69.7685 26.7953 68.8705 26.271 67.9968 25.916C65.0426 24.7182 63.6366 24.4729 60.2679 24.4729C56.7028 24.4729 52.8005 26.0664 50.3637 28.4701C50.1984 28.6327 50.0698 28.6909 49.9397 28.8346C48.6015 30.3115 48.0393 31.176 47.1318 32.9767C46.9273 33.3819 46.3353 34.833 46.2961 35.2951L46.2446 35.2043C46.0211 34.7355 45.8125 33.7748 45.4373 33.0025C44.3212 30.7044 43.4963 29.2736 41.2925 27.4728C38.7663 25.4092 35.3962 24.187 31.1078 24.187C28.522 24.187 26.3115 24.8767 24.4544 25.6301C23.6038 25.9756 22.5987 26.542 21.8524 27.0406C20.6415 27.8481 19.5294 28.7573 18.5921 29.8711C18.2765 30.2465 17.9839 30.6109 17.7116 30.9971C17.4434 31.3779 17.159 31.8128 16.9274 32.2193C16.8027 32.4374 16.6768 32.6461 16.5643 32.8588C16.4357 33.1054 16.3625 33.329 16.2311 33.6014C15.4211 35.287 14.8455 37.9142 14.8455 40.3857Z" fill="url(#paint0_linear_2713_821)"/>
</g>
<defs>
<linearGradient id="paint0_linear_2713_821" x1="46.2033" y1="24.187" x2="46.2033" y2="78.5133" gradientUnits="userSpaceOnUse">
<stop stop-color="#25E7D3"/>
<stop offset="1" stop-color="#01A7CF"/>
</linearGradient>
<clipPath id="clip0_2713_821">
<rect width="93" height="93" fill="white" transform="translate(0 0.763672)"/>
</clipPath>
</defs>
</svg>
