<svg width="96" height="94" viewBox="0 0 96 94" fill="none" xmlns="http://www.w3.org/2000/svg">
<path fill-rule="evenodd" clip-rule="evenodd" d="M0 46.0124C0 50.4536 0.224584 53.8377 1.29601 58.1201C2.03659 61.0781 2.99299 63.7753 4.2167 66.5273C4.49167 67.1451 4.85429 67.8035 5.15995 68.4159C6.06595 70.228 7.14833 72.0794 8.35999 73.7117L11.7824 78.0303C11.938 78.1859 12.0169 78.2538 12.145 78.4225C12.7355 79.1971 15.5182 81.8099 16.4779 82.5855L19.679 85.0483C22.7629 87.3588 27.2404 89.5739 30.8742 90.8447C35.3155 92.3971 40.4262 93.4631 45.2465 93.4631C49.805 93.4631 53.0017 93.256 57.4047 92.1539C62.6884 90.8327 67.603 88.669 72.1176 85.6596C73.2384 84.9124 74.3229 84.0831 75.3911 83.2691L76.9193 81.9655C77.0826 81.8274 77.1352 81.811 77.2951 81.6488C77.4605 81.4812 77.4989 81.4407 77.6928 81.2906C78.4476 80.7078 81.0583 77.9262 81.8197 76.9841L84.2824 73.7829C85.0986 72.694 85.7888 71.4988 86.4943 70.3309C88.704 66.6795 90.3451 62.3412 91.376 58.2209C91.7605 56.6828 92.0322 55.1754 92.2842 53.4652C92.8122 49.8851 92.8823 45.5095 92.4277 41.8767L89.9901 41.9052C90.1983 43.6208 90.3056 45.3802 90.3056 47.2076C90.3056 50.6914 89.8619 54.2091 89.1718 57.0246C88.8135 58.4861 88.486 59.9157 87.9678 61.2961C86.4472 65.3441 85.0559 68.5058 82.4386 72.1922C81.6509 73.3031 80.3243 75.1502 79.4336 76.0463L78.4597 77.1484C77.2535 78.4532 75.9432 79.6879 74.564 80.8042C71.8251 83.0215 70.344 83.9955 67.2699 85.7823C66.973 85.9554 66.6652 86.0671 66.3552 86.2523C65.6047 86.7014 64.4161 87.2032 63.5769 87.5647C62.5898 87.9909 61.5786 88.3272 60.5751 88.7161L58.5112 89.3581C51.2292 91.4035 43.7368 91.5941 36.3354 89.9135C33.8727 89.3548 31.4373 88.566 29.1181 87.5647C25.4262 85.9718 22.0158 83.8804 18.8508 81.4067C18.5714 81.1887 18.372 80.9937 18.096 80.7768C17.8341 80.5708 17.6172 80.3945 17.3839 80.1677L14.2353 77.1484C11.674 74.3789 9.50153 71.2939 7.65556 67.9953L6.73313 66.1493C1.99825 56.5349 1.20289 45.2707 4.10276 34.9497C4.20026 34.6024 4.30543 34.2606 4.42813 33.8903L5.11393 31.8702C5.25635 31.5064 5.35605 31.2337 5.50066 30.8721C6.06266 29.4655 6.91499 27.5067 7.67857 26.1909C7.8418 25.9105 8.02257 25.5971 8.17923 25.3068C9.26928 23.2911 10.6496 21.4133 12.0541 19.6156L17.4156 14.0262C17.5767 13.8662 17.6249 13.8476 17.7903 13.7085C18.9088 12.7619 20.0833 11.8855 21.261 11.0113C22.3192 10.2258 23.4663 9.54873 24.6253 8.90017C26.3836 7.91639 28.2526 6.92384 30.1512 6.24461C31.5129 5.75819 32.8484 5.24001 34.2342 4.85329C41.1273 2.92625 48.7741 2.5713 55.8698 4.2365L59.1959 2.54719C55.4908 1.47467 51.4976 0.763672 47.4496 0.763672C42.8911 0.763672 39.6943 0.970727 35.2914 2.07283C33.7314 2.46284 32.3762 2.87257 30.9213 3.36665C29.5136 3.8454 28.2209 4.3844 26.892 5.00009C23.2734 6.67734 20.4371 8.56932 17.305 10.9565C17.0355 11.1613 16.801 11.3881 16.5151 11.6138L15.4021 12.5779C15.2366 12.7455 15.1983 12.786 15.0044 12.9361C14.2496 13.5189 11.6389 16.3005 10.8775 17.2426L8.41477 20.4438C7.20311 22.0619 6.10868 23.9133 5.20158 25.7264C4.88826 26.3531 4.53111 26.9841 4.26052 27.6173C2.22831 32.3796 1.2018 35.4043 0.413015 40.7615C0.175285 42.3719 0 44.2255 0 46.0124H0Z" fill="#0080AD"/>
<path fill-rule="evenodd" clip-rule="evenodd" d="M47.9196 55.3956V63.7041H42.7399V55.3956C42.7399 54.8423 37.5997 50.9477 41.6104 46.9677C46.3979 42.2175 52.8987 48.5639 49.5782 53.2878C49.1827 53.8509 47.9185 54.6693 47.9185 55.3956H47.9196ZM57.6698 20.3375L57.4726 35.3835H23.6788C20.7537 35.3835 18.2635 38.1771 18.2635 41.5054V66.0354C18.2635 69.3099 20.8238 72.1572 23.9143 72.1572H66.8898C70.0602 72.1572 72.5405 69.0634 72.5405 65.8009V41.9775C72.5405 37.958 70.3363 35.3857 66.1831 35.3857L66.3803 21.5174C66.3803 8.71286 86.365 10.3342 86.5107 21.2819V30.9346H95.2213C95.2213 24.8095 95.9859 18.669 93.5802 13.9769L91.1634 10.5073C80.6255 -0.804014 65.4864 1.88223 59.3952 14.0612C58.544 15.7637 57.6698 17.9087 57.6698 20.3408V20.3375Z" fill="url(#paint0_linear_2713_854)"/>
<defs>
<linearGradient id="paint0_linear_2713_854" x1="56.8002" y1="3.32129" x2="56.8002" y2="72.1572" gradientUnits="userSpaceOnUse">
<stop stop-color="#25E7D3"/>
<stop offset="1" stop-color="#01A7CF"/>
</linearGradient>
</defs>
</svg>
