<svg width="106" height="109" viewBox="0 0 106 109" fill="none" xmlns="http://www.w3.org/2000/svg">
<path fill-rule="evenodd" clip-rule="evenodd" d="M0.00104392 61.1924C0.00104392 65.6342 0.225486 69.0176 1.29759 73.3008C2.03773 76.2592 2.995 78.9567 4.21847 81.7074C4.49302 82.3254 4.85526 82.9841 5.16113 83.5959C6.06725 85.4081 7.1498 87.259 8.36074 88.8917L11.7827 93.2093C11.9383 93.3649 12.0165 93.4327 12.146 93.6018C12.7368 94.3764 15.5189 96.9883 16.4793 97.765L19.6799 100.228C22.7637 102.538 27.2411 104.753 30.8749 106.023C35.3158 107.576 40.4268 108.643 45.2476 108.643C49.8064 108.643 53.0029 108.435 57.4061 107.334C62.6904 106.012 67.6042 103.849 72.1191 100.839C73.2392 100.092 74.3249 99.263 75.3928 98.4488L76.9211 97.1449C77.085 97.0071 77.1372 96.9904 77.2969 96.8286C77.4619 96.6616 77.5015 96.6198 77.6947 96.4705C78.4494 95.888 81.0592 93.107 81.8213 92.1644L84.2839 88.9637C85.1002 87.8739 85.7903 86.6796 86.4959 85.5125C88.7059 81.8619 90.347 77.5234 91.3773 73.402C91.7615 71.8643 92.0339 70.3569 92.2855 68.647C92.8137 65.0663 92.8837 60.6913 92.4285 57.0584C91.9661 53.3661 91.1226 49.5276 89.8396 46.1798C89.23 44.5888 88.5472 43.0115 87.7894 41.4957L87.0127 40.0071C86.093 38.1813 84.8967 36.5287 83.7275 34.8595C83.6419 34.7374 83.6032 34.6299 83.4477 34.5735L82.4007 36.9265C82.3725 37.1687 82.6449 37.4286 82.7806 37.6322C84.2473 39.8317 84.9844 41.2733 86.0899 43.5105C86.3341 44.0053 86.5784 44.5408 86.7924 45.0732C89.0494 50.6801 90.3073 56.1356 90.3073 62.3887C90.3073 65.8722 89.8636 69.3902 89.1736 72.2057C88.8155 73.6661 88.4877 75.0963 87.97 76.4764C86.45 80.5247 85.0574 83.6857 82.4414 87.3728C81.6532 88.4835 80.3264 90.3312 79.4359 91.2269L78.4619 92.3293C77.2552 93.6332 75.9461 94.8692 74.566 95.9851C71.8279 98.2024 70.3465 99.1764 67.2722 100.963C66.9757 101.135 66.6667 101.248 66.3577 101.432C65.6071 101.881 64.4181 102.383 63.5798 102.744C62.5923 103.17 61.5807 103.508 60.5775 103.896L58.5137 104.538C51.2313 106.584 43.7391 106.774 36.3378 105.093C33.8751 104.534 31.4397 103.746 29.1211 102.744C25.4299 101.151 22.0183 99.0594 18.8532 96.5874C18.5744 96.3693 18.374 96.1741 18.0984 95.958C17.8364 95.7523 17.6193 95.5749 17.3865 95.3483L14.238 92.3293C11.6762 89.5598 9.50383 86.475 7.65819 83.1762L6.73536 81.3306C2.00015 71.7161 1.20573 60.4522 4.10469 50.131C4.20177 49.7834 4.30721 49.442 4.43039 49.0725L5.11624 47.0525C5.25926 46.6892 5.35739 46.4157 5.50249 46.0545C6.06517 44.6483 6.917 42.6889 7.68115 41.3736C7.844 41.0927 8.02565 40.7796 8.18223 40.4894C9.27208 38.4736 10.6521 36.5955 12.0562 34.7979L17.4178 29.2088C17.5785 29.0491 17.6276 29.0303 17.7915 28.8904C18.9106 27.9446 20.085 27.0677 21.2615 26.1939C22.32 25.4079 23.4673 24.7314 24.626 24.0831C26.384 23.0998 28.2526 22.107 30.1515 21.4274C31.5128 20.9409 32.8479 20.4232 34.2353 20.0359C41.1283 18.1088 48.775 17.7539 55.8716 19.4189C58.1974 19.9649 60.4564 20.6184 62.6622 21.5015L65.7825 22.8503C66.318 23.0852 66.1803 23.0497 66.6448 22.8043C67.1166 22.5548 68.313 21.8304 68.7222 21.7354C68.4007 21.2959 64.938 19.7947 64.2271 19.4962C62.6059 18.8155 60.9774 18.2445 59.1975 17.7299C55.4926 16.6567 51.4996 15.9458 47.4513 15.9458C42.8925 15.9458 39.696 16.1535 35.2928 17.2549C33.7332 17.6453 32.3771 18.0545 30.9229 18.5493C29.5157 19.0285 28.2223 19.5672 26.8934 20.1831C23.2742 21.8596 20.4378 23.7522 17.3061 26.1397C17.0367 26.3453 16.8019 26.5718 16.5158 26.7973L15.403 27.7609C15.2381 27.9279 15.1984 27.9697 15.0053 28.1189C14.2505 28.7014 11.6407 31.4824 10.8787 32.4251L8.41607 35.6257C7.20408 37.2438 6.11005 39.0957 5.20289 40.909C4.88971 41.5354 4.53165 42.1659 4.26127 42.7996C2.22877 47.5619 1.20259 50.5861 0.413392 55.9435C0.176422 57.5543 0 59.4073 0 61.1944L0.00104392 61.1924Z" fill="#0081AF"/>
<path fill-rule="evenodd" clip-rule="evenodd" d="M35.3983 56.1542C36.0862 54.8357 35.3523 52.8575 34.8815 51.6591C34.3564 50.3229 33.7144 49.1161 33.0954 47.8644C32.4596 46.5804 31.8427 45.4812 31.4554 43.9247C31.065 42.3588 30.9282 40.5758 31.1318 38.8815C31.4971 35.8521 32.8448 33.4678 35.7762 32.3758C36.4745 32.1159 37.3462 31.9134 38.1709 32.0178C39.4403 32.1785 39.2848 32.7652 39.3464 33.6285C39.4643 35.2957 39.6522 37.0087 39.9299 38.6028C40.4237 41.4402 41.2776 44.4727 43.2871 46.4009C44.2027 47.2788 45.4293 48.0659 46.3103 48.9553C47.5662 50.2226 47.6914 50.9242 48.3418 52.4744C49.3022 54.7647 50.6489 57.8474 51.983 59.9645C52.6146 60.9677 53.504 62.3394 54.3652 63.161C54.6805 63.4616 54.7066 63.5222 55.097 63.8374C56.476 64.9513 56.9886 64.636 58.3572 64.7237L58.3446 89.5658C54.4947 90.3175 50.5977 91.0023 46.7456 91.7247C46.2268 91.8217 45.7717 91.9251 45.2341 91.9658L40.4613 92.3197C37.1395 92.5306 27.1617 93.0379 24.3734 91.7414C23.0372 91.1202 21.5267 89.7882 20.6018 88.6357C19.7739 87.6043 19.8094 87.2442 19.8334 86.0165C19.8752 83.8765 19.9169 83.8431 18.3657 82.3659L17.5034 81.5162C15.8102 79.6956 16.2549 79.0557 17.2278 76.6787C17.6809 75.5732 17.873 74.9311 17.2602 74.0261C16.8802 73.4644 16.1609 72.7692 15.6912 72.171C14.9928 71.2816 14.8268 70.8661 15.4448 69.7063C15.8478 68.9505 16.3353 68.3096 16.7173 67.5559C17.2925 66.4211 17.1433 66.0025 16.4835 65.111C16.1014 64.5943 15.2705 63.6286 15.1076 63.0587C14.642 61.4354 17.2967 57.5008 19.0599 56.7544C21.201 55.8473 30.566 56.0289 33.7447 56.1124C34.2625 56.126 34.8982 56.1792 35.3983 56.1552V56.1542ZM60.802 89.2746C60.754 88.9217 60.7811 88.4071 60.7811 88.0323V66.7959C60.7811 65.9461 60.7237 65.3354 61.1371 64.6653C62.0182 63.2382 63.441 63.5075 64.9808 63.5075C66.6469 63.5075 68.313 63.5075 69.9801 63.5075C70.8821 63.5075 71.3999 63.5639 71.9772 64.0264C73.0044 64.8511 72.901 65.729 72.901 66.8523V88.0887C72.901 88.9917 72.9668 89.5209 72.5503 90.2172C71.6901 91.6547 70.2077 91.3854 68.7086 91.3854C67.0426 91.3854 65.3765 91.3854 63.7093 91.3854C62.7865 91.3854 62.3 91.3353 61.704 90.8666C61.2874 90.5388 60.9012 90.0168 60.7989 89.2767L60.802 89.2746Z" fill="url(#paint0_linear_2713_839)"/>
<path fill-rule="evenodd" clip-rule="evenodd" d="M104.276 0.496905C88.9272 9.5696 69.6753 29.427 62.5578 40.6711C62.5578 40.6711 56.6942 29.4239 56.3946 28.5334C55.8966 28.4844 47.3887 31.3395 47.3887 31.3395L60.8427 54.4706H63.0788C69.2483 46.6099 73.9386 38.0143 80.0539 30.378C80.3713 29.9813 81.9445 27.7171 82.2681 27.5636C82.3067 27.2964 83.9112 25.363 84.1075 25.1094L86.0011 22.7157C92.2104 15.0345 98.6639 7.88158 105.241 0.422787V0C105.061 0.0876891 104.932 0.156588 104.752 0.245321C104.587 0.326746 104.449 0.432182 104.278 0.495861L104.276 0.496905Z" fill="#25E7D3"/>
<defs>
<linearGradient id="paint0_linear_2713_839" x1="43.9793" y1="31.9897" x2="43.9793" y2="92.5961" gradientUnits="userSpaceOnUse">
<stop stop-color="#25E7D3"/>
<stop offset="1" stop-color="#01A7CF"/>
</linearGradient>
</defs>
</svg>
