<svg width="94" height="94" viewBox="0 0 94 94" fill="none" xmlns="http://www.w3.org/2000/svg">
<path fill-rule="evenodd" clip-rule="evenodd" d="M45.7461 28.9764L44.3444 29.442L42.9553 30.0699C41.6639 30.7714 41.6677 30.8095 40.5514 30.8082C37.6553 30.8044 33.6898 30.7105 31.022 30.8209L30.6351 31.6138C30.5691 31.8573 30.6414 31.681 30.5603 31.8522C30.493 31.993 30.526 31.9106 30.4372 31.9956C30.4068 32.4535 29.7053 33.5458 29.5315 34.1027L36.4184 34.1128C36.355 34.2549 36.1723 34.5022 36.0455 34.5796C35.9389 34.9627 35.6789 35.2558 35.4975 35.6186C35.33 35.956 35.2146 36.2731 35.0687 36.6486C34.8556 37.2334 34.716 37.7561 34.6006 38.3726C34.4636 39.102 34.5308 39.6335 34.4864 40.3642C34.4078 41.6594 34.1553 42.8113 33.7342 43.8616C33.516 44.4832 33.1735 44.6469 33.1786 45.4905C33.1836 46.3214 33.5896 46.518 33.8217 46.9772C34.0095 47.0571 33.941 47.0508 34.1109 47.1802C35.4366 47.8474 36.1546 48.2001 37.8494 47.7447C38.9238 47.4554 39.4516 47.1256 40.2647 46.5992C40.5171 46.4355 40.7226 46.2135 40.9396 46.0943L41.1895 45.9294C41.3074 45.6985 41.4571 45.5298 41.6373 45.3344C41.8504 45.1035 41.8923 44.9501 42.1371 44.794C42.1688 44.6152 42.0381 44.7598 42.2576 44.5733C42.3261 44.3665 42.4289 44.2321 42.5253 44.0583C42.5697 43.9783 42.6179 43.8807 42.6673 43.8084C42.784 43.6358 42.7105 43.7284 42.8234 43.6155C42.8373 43.3796 43.1671 42.6286 43.261 42.3077C43.3904 41.8649 43.4475 41.2979 43.5718 40.9097C43.8128 40.0801 44.8569 39.1249 45.703 38.7773C46.6963 38.3688 48.5585 38.3548 49.1852 38.9232L49.1661 38.8889C49.6038 39.0703 51.3328 40.8387 51.8605 41.2408L54.1186 43.3225C54.2403 43.4417 54.3241 43.4976 54.4623 43.6028L59.3196 48.0466C59.5277 48.2255 59.5112 48.1506 59.6469 48.3726C59.8702 48.4639 60.8394 49.461 61.1083 49.6754L68.2731 56.1603C69.9171 57.5214 69.2055 59.6437 68.7742 59.9418C68.7044 60.2057 68.7044 60.1663 68.5154 60.349C68.3555 60.5038 68.3708 60.5292 68.1538 60.6141C67.8101 60.9896 66.714 61.1507 66.199 60.9338C65.7322 60.8438 65.1842 60.3275 64.7364 60.0078L64.3685 59.645C64.0146 59.5803 59.737 56.2782 59.5518 56.1336C59.3146 56.0118 58.7792 55.6199 58.6118 55.3877C58.4304 55.3535 58.5737 55.5196 58.419 55.2634C58.1856 55.1873 56.9297 54.2206 56.6367 53.9923L54.9596 52.6933L53.1697 51.4095C52.9578 51.2484 52.4568 50.8425 52.2513 50.7714C51.4825 50.505 50.507 50.6446 50.5438 51.9284C50.5641 52.6172 50.6782 52.5982 51.1134 52.9216L52.8272 54.2384C53.5071 54.6621 55.8831 56.5599 56.8041 57.2347L57.3115 57.6965C57.5703 57.7574 61.9468 61.1736 61.9798 61.2421C62.3033 61.3715 62.7828 61.7863 63.1012 62.0248C63.5173 62.3381 63.8763 62.5018 64.0488 63.0168C64.3418 63.3758 64.3786 64.2853 64.1186 64.6456C63.9828 65.3433 63.4564 65.9205 62.8056 66.0461C62.4111 66.1222 61.9392 66.0715 61.5929 65.9421C61.2796 65.8254 61.0132 65.6313 60.8444 65.3966C60.5349 65.2824 59.6634 64.5809 59.326 64.3272C58.8274 63.9517 58.3365 63.594 57.8088 63.2083C57.4105 62.9178 54.9926 61.185 54.8759 60.982C54.5676 60.892 54.215 60.5761 53.9625 60.3858C53.6923 60.1828 53.3917 59.9596 53.1151 59.7604C52.6052 59.39 51.9354 58.927 51.4851 58.5261C51.0728 58.3067 50.5704 57.8728 50.1734 57.5798C49.2384 56.8884 49.7471 57.2258 48.641 57.0965C48.5331 57.1979 48.6625 57.0901 48.49 57.2144C48.4253 57.2614 48.4101 57.2664 48.3428 57.3121C48.1944 57.4111 48.1767 57.4313 48.0422 57.5189L48.013 57.661L47.9483 58.4779L48.0853 59.0285L49.1154 59.8403L49.1814 59.9317C49.463 60.004 52.5938 62.3571 52.7105 62.5969C52.9616 62.635 54.2442 63.6638 54.56 63.8984L58.1716 66.6461C59.5416 68.0212 58.646 70.2729 56.9855 70.3655C56.1064 70.415 55.6243 69.8835 54.867 69.3304L51.2897 66.6613C50.9865 66.5662 49.8956 65.6884 49.5848 65.4613C49.2879 65.2444 49.0596 65.082 48.7767 64.874C48.4735 64.6507 48.1982 64.4896 47.9965 64.2232L47.4828 63.9162C46.1787 62.9305 46.7445 63.3682 45.6852 63.2236L45.3782 63.4227C45.0687 63.6117 44.9203 63.8058 44.9 64.2587C44.8683 65.0008 45.103 65.0363 45.5 65.356L51.3366 69.9951C51.4965 70.2919 51.1857 72.5018 48.8059 71.8282C48.3949 71.7115 48.1652 71.5224 47.909 71.2066C47.6604 71.1406 45.5571 69.4522 45.3592 69.2999C45.0433 69.0564 42.9769 67.5151 42.9122 67.3273C42.7739 66.9315 42.9337 66.504 42.3654 65.6199C40.7823 63.1538 39.2372 64.4059 38.5648 63.9987C38.372 63.8819 38.1246 63.6244 38.0384 63.4735C37.89 63.3986 37.9014 63.4113 37.7682 63.3187L37.6857 62.1631C37.2316 60.7765 36.5719 59.8632 35.1156 59.4522L34.0361 59.3875C33.587 59.3875 33.497 59.5321 33.2712 59.2872C33.0441 59.0399 33.1202 59.0196 32.779 58.7811C32.7853 58.0263 32.9451 57.6318 32.8031 56.811C32.6838 56.1273 32.3819 55.7074 32.283 55.271C32.0153 55.0896 32.1104 55.0706 31.8516 54.8067C31.6728 54.6228 31.6335 54.5568 31.4013 54.4084C31.0816 54.2029 30.4512 54.0621 30.2622 53.9111C29.5467 53.9707 28.9035 53.9162 28.1259 54.0063C27.9547 53.7843 27.4625 53.1715 27.3965 52.9445C27.0083 52.6958 24.8733 49.7756 24.8137 49.5536C24.5549 49.4458 24.7097 49.5283 24.6767 49.3925L24.2188 48.8648C24.0602 48.6758 23.9612 48.5692 23.8585 48.3587C23.7469 48.2153 23.6619 48.1493 23.5655 47.987C23.4665 48.0859 23.5185 48.0479 23.4285 48.1493C23.3194 48.2711 23.4145 48.1836 23.3029 48.28C23.2902 48.5604 22.4238 50.4708 22.2411 50.6852C22.3109 51.1089 22.5582 51.3334 22.7866 51.6226C22.9908 51.8827 23.1646 52.1072 23.3523 52.3736C23.6606 52.8113 24.3431 53.5585 24.4902 53.9948C24.6818 54.0798 25.1448 54.7712 25.3059 54.9957C25.5507 55.3382 25.8412 55.7061 26.1038 56.0436C25.9922 56.2338 25.8869 56.4546 25.7448 56.5015C25.6446 56.7971 24.305 58.6758 24.0209 59.0462C23.8889 59.2187 23.8547 59.2708 23.7329 59.456C23.6454 59.5904 23.6758 59.5663 23.5718 59.6881L23.3891 59.8619C23.3688 60.0446 23.1583 60.3579 23.0568 60.6433C22.9489 60.9478 22.8538 61.2687 22.8322 61.6163C22.7675 62.64 23.1557 62.9191 23.2179 63.4988C23.5058 63.6485 23.3967 63.5508 23.483 63.8414C23.7836 64.0215 23.8623 64.2371 24.7224 64.7281C26.5428 65.7696 27.9356 65.1708 29.2257 64.0443C29.1141 64.4515 28.9251 64.7649 28.8262 65.2583C28.7171 65.7987 28.8059 66.3087 28.7437 66.8123C28.8503 66.9759 28.8071 66.9303 28.8845 67.1573C28.9264 67.2817 28.9429 67.3426 28.986 67.4466C29.0799 67.6749 29.1636 67.7866 29.2295 67.9946C29.5721 68.3041 29.5505 68.4538 29.9805 68.7786C30.1835 68.9321 30.7505 69.2682 30.8584 69.3735C31.499 69.5498 31.721 69.6475 32.4859 69.6209L32.7802 69.6285C32.9629 69.4839 33.1938 69.442 33.4056 69.3545C34.0729 69.0767 34.5448 68.5692 34.8733 68.3485L34.404 69.3202C34.442 70.5621 33.7139 71.1267 35.3135 72.673C36.903 74.2105 37.895 73.5382 38.6422 73.5217C38.8046 73.3289 39.3653 73.1005 39.7738 72.7035C39.992 72.4916 40.03 72.4282 40.233 72.2379C40.4347 72.0502 40.4943 71.9043 40.7049 71.7165C40.6072 72.4269 40.0757 73.046 40.7506 74.4439C40.9104 74.775 41.2326 75.2875 41.4419 75.4613L42.5912 76.0905C45.0256 76.9087 46.5796 73.8642 46.832 73.6562C47.1504 73.9162 47.5145 74.1534 48.0321 74.3209C48.5268 74.52 49.2575 74.586 49.8093 74.5391C50.4524 74.4832 51.1413 74.1471 51.4977 74.1357C51.688 73.8883 51.9481 73.8223 52.1777 73.6282C53.2395 72.7276 53.1063 72.4345 53.5794 71.6696C54.2264 71.9664 54.4674 72.2975 55.514 72.6299C55.7131 72.6933 56.0633 72.7593 56.232 72.8849C56.8206 72.791 57.3242 72.9584 58.0612 72.7694C59 72.5284 59.756 71.9931 60.3624 71.2687C60.677 70.8932 60.743 70.5406 61.0208 70.141C61.1375 69.5904 61.2821 69.1997 61.2567 68.5794C62.3388 68.6086 62.9553 68.7215 63.9486 68.3346C65.1499 67.8665 65.2095 67.3286 65.7474 67.0368C65.8451 66.8656 66.0151 66.6842 66.1381 66.4964C66.2688 66.2973 66.3322 66.1641 66.4273 65.9319C66.6113 65.4841 66.6887 65.0833 66.7407 64.5632L66.7229 63.5356L67.4612 63.4621C68.1145 63.4138 68.9835 63.0967 69.5315 62.7567C69.6571 62.6794 69.7154 62.6362 69.8156 62.5728L70.0884 62.4218C70.2584 62.1732 70.1074 62.3013 70.3802 62.177C70.4943 61.9322 70.8838 61.4945 71.1083 61.0784C71.329 60.67 71.4318 60.3198 71.636 59.905C71.7439 59.2238 71.8732 58.828 71.8238 58.0479C71.7819 57.3743 71.6068 57.0051 71.4939 56.4229C71.3252 56.2148 71.0474 55.5158 70.847 55.2088C70.611 54.8473 70.2216 54.5631 70.6364 54.0887C70.7176 53.7348 71.3848 52.0945 71.5751 51.8903C71.5916 51.5947 71.688 51.5694 71.7908 51.2839C71.9189 50.9249 71.7705 51.0455 71.7591 50.67C71.5028 50.4505 71.3557 50.0078 71.2618 49.6754L69.5581 45.9852C69.3881 45.8089 69.4668 45.9078 69.3602 45.6795C69.3133 45.5793 69.2867 45.4981 69.2461 45.4067C69.142 45.1733 69.0799 45.063 69.0063 44.7889C68.882 44.6811 67.975 42.6933 67.9572 42.4624C67.857 42.3597 67.9623 42.4954 67.8405 42.3153C67.8304 42.3 67.8177 42.2797 67.8075 42.2645C67.7974 42.248 67.7872 42.229 67.7783 42.2125L67.4016 41.4349C67.2278 41.0213 67.0337 40.7004 66.9183 40.2919L65.7614 37.7954L64.7351 35.5678C64.5829 35.4258 63.6949 33.4608 63.6911 33.235C63.4944 33.07 63.6023 33.183 63.4805 32.9394C63.4285 32.8341 63.4057 32.7643 63.36 32.673C63.2623 32.4738 63.1697 32.3064 63.0847 32.0755L62.505 30.8856C62.2449 30.8323 61.3278 30.9211 60.8774 30.8793C60.436 30.8387 59.8118 30.779 59.3945 30.6699C58.5978 30.5634 55.1537 29.8314 54.7693 29.4775C54.385 29.475 54.3507 29.376 54.0082 29.2403C53.4285 29.0107 52.2525 28.8305 51.6259 28.7494C50.6389 28.6212 49.0038 28.417 48.0321 28.5261C47.2011 28.6365 46.5098 28.7341 45.7461 28.9764Z" fill="url(#paint0_linear_2713_846)"/>
<path fill-rule="evenodd" clip-rule="evenodd" d="M65.5228 25.9332C65.1968 26.2491 64.9469 26.0842 64.3951 26.6779C63.1582 28.0086 65.2108 29.8049 65.259 30.7525C65.4416 30.9098 65.4911 31.0899 65.5951 31.3043C65.6903 31.4996 65.7841 31.6785 65.8793 31.8675C66.048 32.205 66.3004 32.6972 66.3842 33.0473C66.5237 33.2008 67.4865 35.2317 67.5068 35.4842C67.7656 35.7176 68.5686 37.5925 68.627 37.8043C68.75 37.9211 69.6748 39.9241 69.6811 40.1283C69.7623 40.2045 69.7281 40.1639 69.8017 40.2704L70.7353 42.3128L71.8783 44.8359C71.9468 44.9095 71.9163 44.8271 72.0229 45.0402C72.113 45.2216 72.0622 45.1328 72.1193 45.3281L74.1401 49.6844C74.2581 49.8911 74.4103 50.1512 74.4902 50.3542C74.7401 50.4391 74.8277 50.6041 74.9456 50.7537C75.1385 50.8134 75.5837 50.9808 75.7334 51.1039C76.0011 51.0468 76.1558 51.0392 76.407 50.9428C76.6823 50.8362 76.7419 50.7525 77.0311 50.7258C77.1694 50.5584 77.3001 50.5026 77.5589 50.3884C77.7758 50.292 77.9267 50.2184 78.1386 50.1119C78.5001 49.9305 78.9771 49.697 79.3272 49.593C79.4122 49.4814 80.5235 48.9955 80.7531 48.8522C81.5206 48.3676 81.3163 48.3384 81.7324 47.576V46.8403C81.5599 46.532 81.4203 46.0588 81.2567 45.729C81.0778 45.3687 80.9167 45.0262 80.7581 44.6723C80.5564 44.2232 79.8664 42.9762 79.8334 42.5881C79.6773 42.4625 79.6545 42.3927 79.5467 42.1656C79.449 41.9589 79.3983 41.8333 79.3336 41.61L77.5462 37.8424C77.4231 37.7156 77.4561 37.7587 77.3648 37.6001C77.3191 37.5202 77.3102 37.4872 77.2671 37.3883C77.1846 37.1992 77.1263 37.0724 77.0603 36.8758L75.3008 33.1424L74.8289 32.1491C74.6031 31.9119 73.4284 29.1998 73.1126 28.587C72.9578 28.2864 71.4926 25.3814 71.4546 24.997C71.0689 24.7991 70.9142 24.1725 70.1619 24.0177C69.1458 23.8084 67.1111 25.3256 65.5228 25.9332Z" fill="url(#paint1_linear_2713_846)"/>
<path fill-rule="evenodd" clip-rule="evenodd" d="M21.9543 25.0819C20.9889 28.6567 14.1971 42.2924 12.3336 45.8874C11.9264 46.6739 12.0735 46.7285 11.9327 47.0114V47.6089C12.1015 47.926 12.033 48.0896 12.2879 48.3916C12.8639 49.074 16.9321 51.1684 17.9038 51.1494C18.4899 51.0555 18.5495 50.8817 18.9072 50.6762C18.8984 50.5329 18.9973 50.6141 19.081 50.458C21.986 45.602 29.3157 27.959 29.3081 27.6507C29.3005 27.2892 29.1939 26.9898 28.9999 26.7171C28.8337 26.4849 28.5724 26.3568 28.4442 26.1881C27.0666 25.7948 24.3836 23.6687 23.1125 23.9351C22.548 24.0531 22.1814 24.5453 21.953 25.0819H21.9543Z" fill="url(#paint2_linear_2713_846)"/>
<path fill-rule="evenodd" clip-rule="evenodd" d="M66.3462 16.3135L72.9173 16.3312L72.9198 23.2246L79.7446 23.236L79.8271 16.3312L86.5948 16.2666V9.42651L79.8271 9.4189L79.8258 2.52685L72.9135 2.52051L72.9211 9.42778L66.3335 9.42017L66.3462 16.3135Z" fill="#25E7D3"/>
<path fill-rule="evenodd" clip-rule="evenodd" d="M0.467625 46.0155C0.467625 50.4567 0.692159 53.8412 1.76409 58.1239C2.50365 61.0821 3.46141 63.7791 4.68556 66.5306C4.96084 67.1483 5.32238 67.8067 5.6281 68.4194C6.53385 70.2322 7.61592 72.083 8.82739 73.7156L12.2499 78.0338C12.4047 78.1898 12.4846 78.2571 12.6128 78.4258C13.2039 79.1996 15.9858 81.8128 16.9461 82.5879L20.1467 85.0502C23.2305 87.3602 27.7073 89.5764 31.3417 90.8462C35.7829 92.3989 40.8939 93.4645 45.7144 93.4645C50.2723 93.4645 53.4703 93.2564 57.8722 92.1553C63.1557 90.8335 68.0701 88.6706 72.5849 85.6603C73.705 84.9132 74.7909 84.0835 75.859 83.2704L77.3864 81.9663C77.55 81.828 77.602 81.8116 77.7618 81.6492C77.9268 81.4817 77.9661 81.4411 78.1589 81.2915C78.9137 80.7092 81.5244 77.9272 82.2855 76.9847L84.7478 73.7841C85.5635 72.6945 86.2535 71.4995 86.9601 70.3324C89.1699 66.6815 90.8102 62.3431 91.8415 58.2215C92.2259 56.684 92.4974 55.1757 92.7498 53.4657C93.2775 49.8846 93.3473 45.5106 92.8932 41.8775C92.4314 38.1847 91.5865 34.3461 90.304 30.9984C89.6939 29.4076 89.0114 27.8295 88.2541 26.3149L87.4777 24.8269C86.558 23.0001 85.3617 21.3485 84.1921 19.6791C84.1059 19.5573 84.0678 19.4495 83.9118 19.3924L82.8652 21.7455C82.8373 21.9878 83.1088 22.2466 83.2445 22.4509C84.711 24.6505 85.448 26.0929 86.5542 28.3293C86.799 28.8241 87.0426 29.3594 87.257 29.8922C89.5137 35.4992 90.7709 40.9552 90.7709 47.208C90.7709 50.6914 90.3269 54.2091 89.6368 57.024C89.279 58.4854 88.9505 59.9151 88.4329 61.2952C86.9132 65.3432 85.5203 68.5044 82.9046 72.1921C82.1168 73.3021 80.7899 75.1504 79.8994 76.046L78.9251 77.1484C77.7187 78.4524 76.4083 79.688 75.0294 80.8043C72.2906 83.0218 70.8089 83.996 67.7352 85.7821C67.4384 85.9547 67.1301 86.0663 66.8206 86.2515C66.0709 86.7006 64.881 87.2029 64.0424 87.5644C63.0555 87.9907 62.0432 88.3268 61.041 88.7163L58.9771 89.3582C51.6956 91.4044 44.2023 91.5946 36.8015 89.9138C34.3393 89.3544 31.9036 88.5653 29.5847 87.5644C25.8932 85.9711 22.4821 83.8793 19.3171 81.4069C19.038 81.1887 18.8375 80.9933 18.5623 80.7764C18.2997 80.5709 18.0828 80.3933 17.8506 80.1662L14.7021 77.1471C12.1409 74.3778 9.96782 71.2927 8.12208 67.9945L7.19984 66.1487C2.46433 56.5344 1.67021 45.2696 4.56886 34.9499C4.66654 34.6023 4.77183 34.2611 4.89488 33.8907L5.58116 31.8711C5.72451 31.5071 5.82219 31.2343 5.9668 30.8728C6.52877 29.466 7.38124 27.5073 8.14491 26.1918C8.30855 25.9115 8.48869 25.5981 8.64599 25.3076C9.73567 23.2919 11.1159 21.4145 12.5201 19.6169L17.8811 14.0277C18.0422 13.8678 18.0904 13.8488 18.2553 13.7093C19.3741 12.7629 20.5488 11.8863 21.726 11.0123C22.784 10.2271 23.9321 9.54967 25.0902 8.90144C26.8485 7.91831 28.717 6.92504 30.6161 6.24636C31.9772 5.75923 33.313 5.24167 34.6995 4.85476C41.5916 2.92782 49.2397 2.57263 56.336 4.23824C58.6625 4.78372 60.9205 5.43702 63.1265 6.31994L66.2459 7.66841C66.7813 7.90436 66.643 7.86757 67.1085 7.62274C67.5804 7.3741 68.7767 6.64849 69.1864 6.55335C68.8642 6.11443 65.4023 4.61246 64.6919 4.31435C63.0707 3.63314 61.4432 3.06356 59.6621 2.54726C55.958 1.47406 51.9645 0.763672 47.9153 0.763672C43.3574 0.763672 40.1594 0.971715 35.7575 2.07282C34.1972 2.46353 32.8424 2.87201 31.3873 3.36674C29.9805 3.84626 28.6866 4.38539 27.3571 5.00064C23.738 6.67767 20.9015 8.57035 17.7694 10.9578C17.5005 11.1633 17.2658 11.3903 16.9791 11.6149L15.8666 12.579C15.7017 12.7464 15.6624 12.787 15.4695 12.9367C14.7147 13.519 12.1041 16.3009 11.3429 17.2435L8.88067 20.444C7.66793 22.0627 6.57444 23.9135 5.66743 25.7275C5.35409 26.3542 4.99636 26.9847 4.72616 27.6177C2.69394 32.3798 1.66768 35.4041 0.878636 40.7612C0.641417 42.3722 0.465088 44.2256 0.465088 46.0117L0.467625 46.0155Z" fill="#0081AF"/>
<defs>
<linearGradient id="paint0_linear_2713_846" x1="47.0418" y1="28.4951" x2="47.0418" y2="76.2298" gradientUnits="userSpaceOnUse">
<stop stop-color="#25E7D3"/>
<stop offset="1" stop-color="#01A7CF"/>
</linearGradient>
<linearGradient id="paint1_linear_2713_846" x1="72.8658" y1="23.998" x2="72.8658" y2="51.1039" gradientUnits="userSpaceOnUse">
<stop stop-color="#25E7D3"/>
<stop offset="1" stop-color="#01A7CF"/>
</linearGradient>
<linearGradient id="paint2_linear_2713_846" x1="20.6204" y1="23.9121" x2="20.6204" y2="51.1495" gradientUnits="userSpaceOnUse">
<stop stop-color="#25E7D3"/>
<stop offset="1" stop-color="#01A7CF"/>
</linearGradient>
</defs>
</svg>
