<svg width="87" height="117" viewBox="0 0 87 117" fill="none" xmlns="http://www.w3.org/2000/svg">
<g clip-path="url(#clip0_2763_10)">
<path fill-rule="evenodd" clip-rule="evenodd" d="M79.4068 60.3943C41.6629 95.3425 33.6669 93.7388 27.7086 93.615C9.63864 91.501 5.31522 70.5912 2.70251 55.5125C3.00327 56.8257 4.21487 22.0301 31.0212 24.3364C40.6639 25.1661 64.8837 36.4437 79.4068 60.3943Z" fill="url(#paint0_linear_2763_10)"/>
<path fill-rule="evenodd" clip-rule="evenodd" d="M86.729 47.4906C90.8768 63.7129 46.1935 74.7405 33.2838 68.5108C23.1472 63.6192 26.2043 52.2039 31.5088 24.3866C32.6343 13.7464 33.1734 -0.758212 15.2924 0.354745C17.6347 -0.0904375 21.2247 -0.23395 23.486 0.628192C34.9289 4.0946 81.8944 29.3664 86.7287 47.4906H86.729Z" fill="url(#paint1_linear_2763_10)" fill-opacity="0.901961"/>
<path fill-rule="evenodd" clip-rule="evenodd" d="M31.5088 24.3865C5.1434 22.1931 2.85128 56.1782 2.758 55.8302C-0.78271 42.6478 -4.28348 4.12029 15.2927 0.354075C33.019 -1.75282 33.5382 15.5417 31.5088 24.3862V24.3865Z" fill="url(#paint2_linear_2763_10)"/>
<path fill-rule="evenodd" clip-rule="evenodd" d="M18.7541 43.8169C21.0003 48.5589 23.2879 55.5405 25.3428 60.7327C26.4764 63.2838 27.3044 63.861 29.3976 63.8647C30.561 63.8666 31.2705 63.832 32.0444 63.0558C34.5466 60.5458 39.2912 44.2863 40.1053 43.9585C40.8719 48.0259 41.8055 54.7782 43.98 58.0939C46.3997 61.6455 51.1319 63.6384 53.6958 63.8032C59.3311 64.1664 65.5611 63.8823 71.2342 63.8296L71.2146 43.577L56.1348 43.6025C55.8496 43.9066 51.8712 50.3668 51.7902 50.6365C53.16 50.755 63.3644 50.5132 63.9807 50.7087C64.0064 51.6129 64.0761 54.6099 63.9201 55.2345C62.6879 55.373 57.1303 55.251 55.4293 55.2502C52.7035 55.2489 50.7183 54.3383 49.2708 52.1164C47.9603 50.1045 45.982 38.3184 45.0875 34.8698C44.329 31.945 42.0004 30.41 39.4099 31.5884C38.5696 31.9708 37.6791 33.2566 37.1875 34.3575C34.6161 40.4471 32.1363 46.6272 29.5896 52.7418C27.6864 48.1124 23.5029 36.5707 21.285 33.1596C19.2382 30.0119 15.0879 30.6507 14.0396 34.799C13.4155 37.2669 7.73254 63.4073 7.73254 63.4073L14.7786 63.4046C14.7786 63.4046 18.2989 46.3237 18.7538 43.8169H18.7541Z" fill="white"/>
<path fill-rule="evenodd" clip-rule="evenodd" d="M46.8235 35.1245C46.9811 35.9901 48.6765 44.3016 48.925 44.7103C50.3722 42.0445 51.0874 41.2282 53.6275 40.4776C55.6872 39.8695 66.7757 40.2052 66.7757 40.2052C67.0885 39.9478 71.0605 32.7324 71.2342 32.4236C70.3153 32.3181 65.9541 32.4041 64.671 32.4041C61.2903 32.4041 54.6616 32.213 51.6637 32.7585C50.357 32.9963 47.7078 34.1926 46.8238 35.1242L46.8235 35.1245Z" fill="white"/>
<path d="M11.4456 116.807L11.4177 107.158H9.15589L5.8256 112.727L2.41222 107.158H0.150391V116.807H2.68992V111.831L5.1737 115.855H6.39494L8.89266 111.693L8.92027 116.806H11.4459L11.4456 116.807ZM16.1081 114.697V112.933H20.4237V110.893H16.1081V109.267H21.0065V107.158H13.3882V116.807H21.1866V114.697H16.1078H16.1081ZM22.7132 116.807H27.3063C30.5256 116.807 32.7319 114.946 32.7319 111.982C32.7319 109.019 30.5256 107.158 27.3063 107.158H22.7132V116.807ZM25.461 114.629V109.336H27.1953C28.8468 109.336 29.9568 110.315 29.9568 111.982C29.9568 113.65 28.8468 114.629 27.1953 114.629H25.461V114.629ZM40.6832 114.422C40.1974 114.642 39.7117 114.739 39.1982 114.739C37.5609 114.739 36.4506 113.609 36.4506 111.982C36.4506 110.314 37.5606 109.225 39.226 109.225C40.1556 109.225 40.919 109.57 41.5849 110.3L43.3334 108.729C42.3762 107.585 40.9051 106.965 39.0874 106.965C35.9373 106.965 33.6757 109.046 33.6757 111.982C33.6757 114.918 35.9373 116.999 39.032 116.999C40.4473 116.999 41.9875 116.572 43.1117 115.773V111.776H40.6832V114.422V114.422ZM50.8684 116.807H53.81L51.7146 113.774C52.9219 113.195 53.6159 112.148 53.6159 110.728C53.6159 108.523 51.9505 107.158 49.3002 107.158H44.86V116.807H47.6075V114.243H49.1062L50.8684 116.807ZM50.8405 110.728C50.8405 111.61 50.2717 112.134 49.1338 112.134H47.6075V109.308H49.1338C50.2717 109.308 50.8405 109.832 50.8405 110.728V110.728ZM60.0266 117C63.135 117 65.4247 114.877 65.4247 111.982C65.4247 109.088 63.135 106.965 60.0266 106.965C56.9183 106.965 54.6286 109.087 54.6286 111.982C54.6286 114.877 56.9183 117 60.0266 117ZM60.0266 114.739C58.5558 114.739 57.404 113.65 57.404 111.982C57.404 110.315 58.5558 109.226 60.0266 109.226C61.4974 109.226 62.6493 110.315 62.6493 111.982C62.6493 113.65 61.4974 114.739 60.0266 114.739ZM71.35 117C74.2224 117 75.9152 115.387 75.9152 112.506V107.158H73.2092V112.423C73.2092 114.078 72.5157 114.739 71.3776 114.739C70.2258 114.739 69.5321 114.078 69.5321 112.423V107.158H66.7845V112.506C66.7845 115.387 68.4775 117 71.35 117ZM82.215 107.158H77.7747V116.807H80.5222V114.284H82.2152C84.8657 114.284 86.5309 112.92 86.5309 110.728C86.5309 108.522 84.866 107.158 82.2152 107.158L82.215 107.158ZM82.0485 112.134H80.5222V109.308H82.0485C83.1864 109.308 83.7555 109.832 83.7555 110.728C83.7555 111.611 83.1864 112.134 82.0485 112.134V112.134Z" fill="#025C91"/>
</g>
<defs>
<linearGradient id="paint0_linear_2763_10" x1="58.8488" y1="92.1099" x2="22.1468" y2="29.9949" gradientUnits="userSpaceOnUse">
<stop stop-color="#3FF5D1"/>
<stop offset="1" stop-color="#00A6CF"/>
</linearGradient>
<linearGradient id="paint1_linear_2763_10" x1="87.7647" y1="46.6886" x2="9.11291" y2="30.6392" gradientUnits="userSpaceOnUse">
<stop stop-color="#892993"/>
<stop offset="1" stop-color="#2688C5"/>
</linearGradient>
<linearGradient id="paint2_linear_2763_10" x1="31.6002" y1="7.72196" x2="-1.53536" y2="49.9207" gradientUnits="userSpaceOnUse">
<stop stop-color="#DE137F"/>
<stop offset="0.360784" stop-color="#EE7260"/>
<stop offset="1" stop-color="#FFD240"/>
</linearGradient>
<clipPath id="clip0_2763_10">
<rect width="87" height="117" fill="white"/>
</clipPath>
</defs>
</svg>
